<?xml version="1.0" encoding="UTF-8"?>
<svg version="1.1" xmlns="http://www.w3.org/2000/svg" width="240" height="240">
<path d="M0 0 C79.2 0 158.4 0 240 0 C240 79.2 240 158.4 240 240 C160.8 240 81.6 240 0 240 C0 160.8 0 81.6 0 0 Z " fill="#1DB8C6" transform="translate(0,0)"/>
<path d="M0 0 C0.74836624 -0.0065712 1.49673248 -0.0131424 2.26777649 -0.01991272 C4.74533187 -0.03962743 7.22282661 -0.05130578 9.70043945 -0.0612793 C10.54824289 -0.06535482 11.39604633 -0.06943035 12.26954079 -0.07362938 C16.75911846 -0.09448486 21.24866563 -0.1087874 25.73828125 -0.11816406 C30.36400363 -0.1292122 34.9892428 -0.16359492 39.61479473 -0.20333576 C43.18114585 -0.22954906 46.74738282 -0.23786019 50.31382179 -0.24144554 C52.01817898 -0.24630132 53.72253141 -0.25788645 55.42679405 -0.27648354 C72.01088349 -0.44616554 72.01088349 -0.44616554 78.6262207 4.17700195 C83.63464583 9.1548879 87.00015604 15.40680486 90.6262207 21.42700195 C91.22950195 22.41313477 91.8327832 23.39926758 92.4543457 24.4152832 C95.72692628 29.81504116 98.7123821 35.25615125 101.4777832 40.93041992 C103.13452605 44.17135268 105.08844159 47.09729731 107.1262207 50.11450195 C113.27510063 59.40549016 118.60584051 68.76624537 117.6262207 80.17700195 C116.39939353 86.13439153 113.70597611 91.05760459 110.5012207 96.16918945 C108.11154829 100.00262228 105.84106683 103.90112161 103.5637207 107.80200195 C101.09675259 112.02750033 98.60801602 116.22976432 95.99731445 120.3684082 C94.12143611 123.35021756 92.39112581 126.36980082 90.7512207 129.48950195 C88.61759057 133.4276676 86.4093892 137.29833845 84.0637207 141.11450195 C83.25741211 142.42741211 83.25741211 142.42741211 82.43481445 143.7668457 C79.23805146 148.02689488 75.67085622 150.55656974 70.6262207 152.17700195 C68.04509581 152.36805102 65.57307984 152.46076376 62.99365234 152.45166016 C61.86584602 152.45932655 61.86584602 152.45932655 60.71525574 152.46714783 C58.23888101 152.48100631 55.76278576 152.48008995 53.28637695 152.4777832 C51.55911659 152.4816721 49.83185718 152.48600717 48.104599 152.49076843 C44.48750709 152.49822251 40.87051281 152.49794519 37.25341797 152.49267578 C32.62537638 152.4868812 27.997735 152.5038157 23.36975956 152.52702045 C19.80347876 152.54177416 16.237294 152.54262729 12.67098808 152.53951073 C10.9650029 152.54002308 9.25901221 152.54524471 7.55305672 152.55532265 C5.16450337 152.56770216 2.77672515 152.56088686 0.38818359 152.54931641 C-0.31174713 152.55696014 -1.01167786 152.56460388 -1.7328186 152.57247925 C-7.05401628 152.51569687 -11.06459612 151.20263586 -15.08764648 147.67358398 C-18.87023822 143.09429252 -21.81569637 138.27815629 -24.6237793 133.05200195 C-25.2734668 131.87444336 -25.2734668 131.87444336 -25.9362793 130.6730957 C-31.82145019 119.90177984 -31.82145019 119.90177984 -31.1862793 114.80200195 C-31.11022461 114.09301758 -31.03416992 113.3840332 -30.95581055 112.65356445 C-29.24794005 105.38651818 -25.15641681 99.22658054 -21.3112793 92.92700195 C-20.76922852 92.02981445 -20.22717773 91.13262695 -19.66870117 90.20825195 C-17.62028881 86.82545973 -15.56771327 83.46790291 -13.3737793 80.17700195 C-12.60478951 71.99714499 -16.25036708 66.19841904 -20.6862793 59.67700195 C-32.69374983 41.67244481 -32.69374983 41.67244481 -31.03393555 32.4387207 C-28.95767633 25.32538292 -24.82436264 19.10748956 -20.9362793 12.86450195 C-20.57727539 12.27773682 -20.21827148 11.69097168 -19.84838867 11.08642578 C-14.67433049 3.01060637 -9.52039251 0.03625963 0 0 Z " fill="#F7FCFC" transform="translate(79.373779296875,43.822998046875)"/>
<path d="M0 0 C9.13592569 -0.23213413 18.27083057 -0.40959222 27.4090662 -0.51812172 C31.65292372 -0.57022396 35.89475819 -0.6408277 40.13745117 -0.75439453 C44.23548019 -0.86339718 48.33156968 -0.92290859 52.43093681 -0.94877243 C53.99126159 -0.96719108 55.55148494 -1.00316465 57.11097908 -1.05730057 C69.30824938 -1.46370857 69.30824938 -1.46370857 73.46603394 2.13362122 C75.28571383 4.68870089 76.66967668 7.16431214 78 10 C78.86644022 11.5140453 79.73998624 13.02407981 80.625 14.52734375 C81.42157032 15.9947445 82.21321346 17.46483026 83 18.9375 C86.30542806 25.01571 89.76779772 30.90049047 93.5546875 36.6953125 C95.22012429 39.351009 96.56766878 42.0727633 97.890625 44.91015625 C99.30437372 47.57338006 101.03222084 49.96046245 102.75 52.4375 C105.31758122 56.50330107 107.15779555 59.60041697 106.76171875 64.4765625 C104.61670931 71.58259377 100.02671258 78.05239064 95.859375 84.11328125 C93.97807997 86.82689802 93.97807997 86.82689802 93.06054688 89.38696289 C91.9842511 92.03880306 90.70100062 94.27941324 89.171875 96.6953125 C88.62184814 97.57147217 88.07182129 98.44763184 87.50512695 99.3503418 C86.92593506 100.265979 86.34674316 101.18161621 85.75 102.125 C81.62908757 108.69597088 77.60420664 115.238893 74.05078125 122.13671875 C73 124 73 124 71 126 C68.0640564 126.24050903 68.0640564 126.24050903 64.25537109 126.22705078 C63.21617775 126.22748886 63.21617775 126.22748886 62.1559906 126.22793579 C59.86167966 126.22654031 57.56769184 126.21096919 55.2734375 126.1953125 C53.68446022 126.19158314 52.09548064 126.1887358 50.50650024 126.18673706 C46.32085846 126.17909453 42.1353551 126.15944081 37.94976807 126.1373291 C33.68007276 126.11688396 29.41035513 126.1077382 25.140625 126.09765625 C16.76035309 126.07619543 8.38019375 126.04205211 0 126 C2.0004176 121.89539673 4.03641021 117.81266759 6.11872673 113.74899864 C6.85509059 112.28759112 7.55146507 110.8061233 8.23768616 109.32051086 C9.76756194 106.33004997 10.77016938 104.40759734 14.0475769 103.32138062 C16.63182672 103.0231225 19.08375751 103.02181705 21.68359375 103.10546875 C22.6167189 103.10170731 23.54984406 103.09794586 24.51124573 103.09407043 C27.48816159 103.08777102 30.46109345 103.1347755 33.4375 103.1875 C36.40952677 103.21374997 39.38089929 103.2285355 42.3530426 103.22737122 C44.19961509 103.22939196 46.04627139 103.24852148 47.8924408 103.28715515 C53.01389219 103.32371666 56.62569459 102.97821515 61 100 C62.73620545 98.05741566 62.73620545 98.05741566 63.96484375 95.75390625 C64.45178711 94.9222998 64.93873047 94.09069336 65.44042969 93.23388672 C66.18147949 91.91155029 66.18147949 91.91155029 66.9375 90.5625 C67.98299408 88.74344427 69.02856669 86.92443367 70.07421875 85.10546875 C70.57356934 84.22552246 71.07291992 83.34557617 71.58740234 82.43896484 C72.78451593 80.37205079 74.02483973 78.36139205 75.33203125 76.36328125 C78.69627044 71.12164585 81.13875259 66.8279083 80.60546875 60.46875 C79.37338531 55.44502914 76.69899121 51.36195234 74 47 C73.16754255 45.56891766 72.33972845 44.13512807 71.515625 42.69921875 C65.47449484 30.46447259 65.47449484 30.46447259 55 23 C51.70403956 22.6727608 48.41588098 22.62773973 45.10546875 22.5859375 C44.15811356 22.56657135 43.21075836 22.5472052 42.23469543 22.5272522 C39.21905423 22.46763629 36.20337448 22.42114295 33.1875 22.375 C31.13865554 22.33680367 29.08982686 22.29775098 27.04101562 22.2578125 C22.02747238 22.16194947 17.01385397 22.07785193 12 22 C11.46890625 20.99839844 10.9378125 19.99679688 10.390625 18.96484375 C9.67714013 17.62236564 8.96359525 16.27991943 8.25 14.9375 C7.90195313 14.28072266 7.55390625 13.62394531 7.1953125 12.94726562 C4.87417105 8.58437938 2.47105672 4.27982572 0 0 Z " fill="#1FB9C7" transform="translate(78,57)"/>
<path d="M0 0 C5.33845574 -0.12368107 10.67607624 -0.21437609 16.015625 -0.2746582 C17.83152799 -0.299789 19.64732996 -0.33389961 21.46289062 -0.37719727 C24.07447223 -0.43791511 26.68471594 -0.46622281 29.296875 -0.48828125 C30.10743347 -0.51408768 30.91799194 -0.5398941 31.75311279 -0.56648254 C35.69087664 -0.56843802 37.53337235 -0.44877979 40.42553711 2.33276367 C40.94510986 3.21295166 41.46468262 4.09313965 42 5 C42.62519531 6.04414062 43.25039062 7.08828125 43.89453125 8.1640625 C44.87737787 9.93759021 45.86016563 11.71115087 46.84179688 13.48535156 C49.51165825 18.25791452 52.48922086 22.71314599 55.75 27.109375 C57.63322895 31.46434195 57.7577591 35.33269394 57 40 C55.66931907 43.27795188 53.86261999 46.08333156 51.875 49 C50.86302069 50.56233126 49.85130011 52.12483014 48.83984375 53.6875 C48.34983887 54.42742187 47.85983398 55.16734375 47.35498047 55.9296875 C45.62733716 58.56940196 44.02592335 61.27472502 42.4375 64 C41.04969205 66.3720397 39.95314182 68.04685818 38 70 C35.13111419 70.17532289 32.36007355 70.23137614 29.4921875 70.1953125 C28.23125778 70.19106766 28.23125778 70.19106766 26.94485474 70.18673706 C24.25475954 70.1755243 21.5649949 70.15041803 18.875 70.125 C17.05339022 70.1149716 15.23177523 70.10584551 13.41015625 70.09765625 C8.93997642 70.07558142 4.47004429 70.04104434 0 70 C1.46815871 65.38797469 3.34162428 61.39564452 5.8125 57.25 C6.52868343 56.0098873 7.243523 54.76899756 7.95703125 53.52734375 C9.1694346 51.42685635 10.39493482 49.33737665 11.63671875 47.25390625 C15.02114408 41.19297264 16.6577929 35.89020173 15 29 C12.85962282 24.04973152 10.00222057 19.48076142 7.16748047 14.90527344 C5.50467121 12.19164662 3.96511994 9.41647816 2.4375 6.625 C1.96183594 5.77164063 1.48617187 4.91828125 0.99609375 4.0390625 C0 2 0 2 0 0 Z " fill="#1DB9C7" transform="translate(95,85)"/>
<path d="M0 0 C0.66 0 1.32 0 2 0 C3.5774398 2.15812922 5.02014842 4.30252261 6.4375 6.5625 C6.83259766 7.17158203 7.22769531 7.78066406 7.63476562 8.40820312 C9.53348125 11.3937044 11.09970594 14.23325463 12.49609375 17.5 C14.19025331 21.44277134 16.29849982 24.84732202 18.625 28.4375 C19.51241512 29.84639948 20.39777691 31.25659402 21.28125 32.66796875 C22.62843369 34.81794617 23.97809567 36.96570285 25.34375 39.10400391 C26.63170807 41.13704188 27.88131281 43.18965669 29.125 45.25 C29.51510254 45.84997803 29.90520508 46.44995605 30.30712891 47.06811523 C33.67895411 52.78093302 33.98467575 58.50365681 33 65 C31.6796379 68.65738258 29.83074917 71.78837529 27.75 75.0625 C26.94550415 76.39825073 26.94550415 76.39825073 26.12475586 77.76098633 C24.44677511 80.52746632 22.73057994 83.266164 21 86 C20.45037598 86.87301758 19.90075195 87.74603516 19.33447266 88.64550781 C15.05821657 95.42747291 15.05821657 95.42747291 13.09863281 98.43188477 C10.08347073 103.08906519 7.4950219 107.82672382 5.09350586 112.8293457 C4 115 4 115 2 118 C1.34 118 0.68 118 0 118 C-0.38671875 117.27554688 -0.7734375 116.55109375 -1.171875 115.8046875 C-4.48611681 109.54583402 -4.48611681 109.54583402 -8.4375 103.6875 C-10 101 -10 101 -9.95703125 98.4765625 C-8.55718747 93.3914157 -5.93319479 89.20101695 -3.25 84.6875 C-1.67185166 81.98956258 -0.09511309 79.29080623 1.48120117 76.59179688 C2.47241033 74.90032019 3.47220967 73.21383977 4.48168945 71.53320312 C8.20811071 65.16598468 9.31237579 60.39528548 8 53 C6.45692486 49.03723893 4.23705674 45.60560909 2 42 C0.22229819 38.84855555 -1.51092459 35.67288423 -3.25 32.5 C-4.10722785 30.94672974 -4.96648117 29.39457494 -5.828125 27.84375 C-6.1984082 27.17537109 -6.56869141 26.50699219 -6.95019531 25.81835938 C-7.90058568 24.17219484 -8.94561728 22.58157409 -10 21 C-9.79296486 16.00415212 -6.89334885 11.8959148 -4.4375 7.6875 C-4.01275391 6.94693359 -3.58800781 6.20636719 -3.15039062 5.44335938 C-2.10648347 3.62531882 -1.05407808 1.81216252 0 0 Z " fill="#1DB9C7" transform="translate(71,61)"/>
<path d="M0 0 C18.315 0.495 18.315 0.495 37 1 C37 1.66 37 2.32 37 3 C24.46 3 11.92 3 -1 3 C-0.67 2.01 -0.34 1.02 0 0 Z " fill="#3DBFCB" transform="translate(96,152)"/>
<path d="M0 0 C12.54 0 25.08 0 38 0 C38 0.66 38 1.32 38 2 C25.79 2.33 13.58 2.66 1 3 C0.67 2.01 0.34 1.02 0 0 Z " fill="#3DBFCB" transform="translate(95,85)"/>
</svg>
